<svg xmlns="http://www.w3.org/2000/svg" width="200px" height="58px" viewBox="0 0 200 24.13"><defs><style>.cls-1{fill:#b01b44;}.cls-1,.cls-2{fill-rule:evenodd;}.cls-2{fill:#010000;}</style></defs><title>ADVANTEST</title><g id="Layer_2" data-name="Layer 2"><g id="Layer_1-2" data-name="Layer 1"><path class="cls-1" d="M71.81.42H66.63a1.47,1.47,0,0,0-1.24.91L60.65,14.22,55.85,1.33A1.38,1.38,0,0,0,54.62.42H49.43c-.52,0-.78.39-.58.91l8,21.54a1.37,1.37,0,0,0,1.24.83h5.18a1.52,1.52,0,0,0,1.23-.83l8-21.54c.13-.52-.12-.91-.65-.91"/><path class="cls-1" d="M91.1,22.87,83.22,1.33A1.47,1.47,0,0,0,81.93.42H76.45a1.48,1.48,0,0,0-1.29.91L67.29,22.87a.56.56,0,0,0,.58.83H79a1.45,1.45,0,0,0,1.23-.83l1.09-3.29a.81.81,0,0,0-.71-1.1H75.87l3.29-9,5,13.42a1.43,1.43,0,0,0,1.23.83h5.16a.57.57,0,0,0,.58-.83"/><path class="cls-1" d="M39,.4H29.17a1,1,0,0,0-.91,1V22.77a.93.93,0,0,0,.91.9H39s11.44,1,11.44-11.6C50.43.33,39,.4,39,.4Zm.06,17.53H35.31V6.33h3.74s4.4.13,4.4,5.8c0,5.1-3.94,5.8-4.4,5.8"/><path class="cls-1" d="M112.07.42h-5.18a1,1,0,0,0-.89,1V12.55L99,1.2A2.12,2.12,0,0,0,97.6.42H92.68a.24.24,0,0,0-.19.06.91.91,0,0,0-.78.91V22.81a.94.94,0,0,0,1,.89h5.17a.91.91,0,0,0,.9-.89V12l6.79,10.9a1.75,1.75,0,0,0,1.35.77h5.36a.94.94,0,0,0,.78-.89V1.39a1,1,0,0,0-1-1"/><path class="cls-1" d="M197.6.42H178.9a1,1,0,0,0-.9,1v4.2a.9.9,0,0,0,.9.9h5.87V22.81a.88.88,0,0,0,.91.89h5.15a.88.88,0,0,0,.9-.89V6.49h5.87a.94.94,0,0,0,1-.9V1.39a1,1,0,0,0-1-1"/><path class="cls-1" d="M134.14.42H115.43a1,1,0,0,0-1,1v4.2a1,1,0,0,0,1,.9h5.88V22.81a.88.88,0,0,0,.91.89h5.15a.88.88,0,0,0,.91-.89V6.49h5.86a1,1,0,0,0,1-.9V1.39a1,1,0,0,0-1-1"/><path class="cls-1" d="M155.21,6.49a.94.94,0,0,0,1-.9V1.39a1,1,0,0,0-1-1H137.37a.94.94,0,0,0-.9,1V22.81a.88.88,0,0,0,.9.89h17.84a.93.93,0,0,0,1-.89v-4.2a1,1,0,0,0-1-1H143.44V14.49h10a.89.89,0,0,0,.91-.91V9.84a.89.89,0,0,0-.91-.9h-10V6.49h11.77"/><path class="cls-1" d="M24.56.42H16.18a1.94,1.94,0,0,0-1.42.78L.16,22.93c-.33.45-.12.77.39.77H13.26a1.79,1.79,0,0,0,1.43-.77s2.39-3.35,2.65-3.87.32-1.16-.39-1.16H11.59L18.44,7.77v15a.94.94,0,0,0,1,.89h5.15a.92.92,0,0,0,.91-.89V1.39a1,1,0,0,0-.91-1"/><path class="cls-1" d="M171.94,9.57c-3.35-.91-7.1-1.29-7.23-3,0-1.3,1.94-1.55,3-1.55a3.41,3.41,0,0,1,2,.71,2.3,2.3,0,0,1,.64.71,1,1,0,0,0,1.09.77c.85-.06,4.64,0,4.64,0a1,1,0,0,0,1-.9C176.46,1.61,172.46,0,167.69,0S158,1.68,158,7.05c0,4.72,4.39,6.28,8.18,7.31,4.07,1.16,4.91,1.49,4.91,2.72,0,1.42-2,1.93-2.83,1.93-1.17,0-3-.25-3.49-1.55a3,3,0,0,1-.26-.71.74.74,0,0,0-.64-.51h-5.75a.84.84,0,0,0-.77.84c.65,6.34,8.06,7.05,10.33,7.05,5.15,0,10.57-2.27,10.57-7.83,0-4-3.22-5.89-6.32-6.73"/><path class="cls-2" d="M193.65,20.86a3.18,3.18,0,1,0,6.35,0,3.18,3.18,0,1,0-6.35,0Zm.39,0A2.79,2.79,0,0,1,196.86,18a2.83,2.83,0,0,1,2.82,2.86,2.88,2.88,0,0,1-2.82,2.88A2.84,2.84,0,0,1,194,20.86Z"/><path class="cls-2" d="M195.6,19.05h1.68c.77,0,1.16.38,1.16,1a1.08,1.08,0,0,1-.58.91h0c.19,0,.51.19.51.7a1.49,1.49,0,0,0,.19.9h-.64a.61.61,0,0,1-.13-.45c0-.65-.13-1-.7-1h-.91v1.41h-.58V19.05Zm.58,1.6h1a.51.51,0,0,0,.58-.58c0-.44-.25-.5-.58-.5h-1v1.08"/><path class="cls-1" d="M71.81.42H66.63a1.47,1.47,0,0,0-1.24.91L60.65,14.22,55.85,1.33A1.38,1.38,0,0,0,54.62.42H49.43c-.52,0-.78.39-.58.91l8,21.54a1.37,1.37,0,0,0,1.24.83h5.18a1.52,1.52,0,0,0,1.23-.83l8-21.54c.13-.52-.12-.91-.65-.91"/><path class="cls-1" d="M91.1,22.87,83.22,1.33A1.47,1.47,0,0,0,81.93.42H76.45a1.48,1.48,0,0,0-1.29.91L67.29,22.87a.56.56,0,0,0,.58.83H79a1.45,1.45,0,0,0,1.23-.83l1.09-3.29a.81.81,0,0,0-.71-1.1H75.87l3.29-9,5,13.42a1.43,1.43,0,0,0,1.23.83h5.16a.57.57,0,0,0,.58-.83"/><path class="cls-1" d="M39,.4H29.17a1,1,0,0,0-.91,1V22.77a.93.93,0,0,0,.91.9H39s11.44,1,11.44-11.6C50.43.33,39,.4,39,.4Zm.06,17.53H35.31V6.33h3.74s4.4.13,4.4,5.8c0,5.1-3.94,5.8-4.4,5.8"/><path class="cls-1" d="M112.07.42h-5.18a1,1,0,0,0-.89,1V12.55L99,1.2A2.12,2.12,0,0,0,97.6.42H92.68a.24.24,0,0,0-.19.06.91.91,0,0,0-.78.91V22.81a.94.94,0,0,0,1,.89h5.17a.91.91,0,0,0,.9-.89V12l6.79,10.9a1.75,1.75,0,0,0,1.35.77h5.36a.94.94,0,0,0,.78-.89V1.39a1,1,0,0,0-1-1"/><path class="cls-1" d="M197.6.42H178.9a1,1,0,0,0-.9,1v4.2a.9.9,0,0,0,.9.9h5.87V22.81a.88.88,0,0,0,.91.89h5.15a.88.88,0,0,0,.9-.89V6.49h5.87a.94.94,0,0,0,1-.9V1.39a1,1,0,0,0-1-1"/><path class="cls-1" d="M134.14.42H115.43a1,1,0,0,0-1,1v4.2a1,1,0,0,0,1,.9h5.88V22.81a.88.88,0,0,0,.91.89h5.15a.88.88,0,0,0,.91-.89V6.49h5.86a1,1,0,0,0,1-.9V1.39a1,1,0,0,0-1-1"/><path class="cls-1" d="M155.21,6.49a.94.94,0,0,0,1-.9V1.39a1,1,0,0,0-1-1H137.37a.94.94,0,0,0-.9,1V22.81a.88.88,0,0,0,.9.89h17.84a.93.93,0,0,0,1-.89v-4.2a1,1,0,0,0-1-1H143.44V14.49h10a.89.89,0,0,0,.91-.91V9.84a.89.89,0,0,0-.91-.9h-10V6.49h11.77"/><path class="cls-1" d="M24.56.42H16.18a1.94,1.94,0,0,0-1.42.78L.16,22.93c-.33.45-.12.77.39.77H13.26a1.79,1.79,0,0,0,1.43-.77s2.39-3.35,2.65-3.87.32-1.16-.39-1.16H11.59L18.44,7.77v15a.94.94,0,0,0,1,.89h5.15a.92.92,0,0,0,.91-.89V1.39a1,1,0,0,0-.91-1"/><path class="cls-1" d="M171.94,9.57c-3.35-.91-7.1-1.29-7.23-3,0-1.3,1.94-1.55,3-1.55a3.41,3.41,0,0,1,2,.71,2.3,2.3,0,0,1,.64.71,1,1,0,0,0,1.09.77c.85-.06,4.64,0,4.64,0a1,1,0,0,0,1-.9C176.46,1.61,172.46,0,167.69,0S158,1.68,158,7.05c0,4.72,4.39,6.28,8.18,7.31,4.07,1.16,4.91,1.49,4.91,2.72,0,1.42-2,1.93-2.83,1.93-1.17,0-3-.25-3.49-1.55a3,3,0,0,1-.26-.71.74.74,0,0,0-.64-.51h-5.75a.84.84,0,0,0-.77.84c.65,6.34,8.06,7.05,10.33,7.05,5.15,0,10.57-2.27,10.57-7.83,0-4-3.22-5.89-6.32-6.73"/><path class="cls-2" d="M193.65,20.86a3.18,3.18,0,1,0,6.35,0,3.18,3.18,0,1,0-6.35,0Zm.39,0A2.79,2.79,0,0,1,196.86,18a2.83,2.83,0,0,1,2.82,2.86,2.88,2.88,0,0,1-2.82,2.88A2.84,2.84,0,0,1,194,20.86Z"/><path class="cls-2" d="M195.6,19.05h1.68c.77,0,1.16.38,1.16,1a1.08,1.08,0,0,1-.58.91h0c.19,0,.51.19.51.7a1.49,1.49,0,0,0,.19.9h-.64a.61.61,0,0,1-.13-.45c0-.65-.13-1-.7-1h-.91v1.41h-.58V19.05Zm.58,1.6h1a.51.51,0,0,0,.58-.58c0-.44-.25-.5-.58-.5h-1v1.08"/></g></g></svg>